<?xml version="1.0" encoding="UTF-8"?>
<svg width="179px" height="173px" viewBox="0 0 179 173" version="1.1" xmlns="http://www.w3.org/2000/svg" xmlns:xlink="http://www.w3.org/1999/xlink">
    <title>C3B52071-ED94-4AA4-9C45-918E2774AC4Bsvg/</title>
    <g id="Page-1" stroke="none" stroke-width="1" fill="none" fill-rule="evenodd">
        <g id="Splash" transform="translate(-95.000000, -306.000000)">
            <g id="splash_logo" transform="translate(93.000000, 309.000000)">
                <text id="Cliqk" font-family="Avenir-Heavy, Avenir" font-size="50" font-weight="600" letter-spacing="7.464286" fill="#FFFFFF">
                    <tspan x="0.364285" y="168.667">CLIQK</tspan>
                </text>
                <g id="Group" transform="translate(45.373000, 0.000000)" stroke="#FFFFFF" stroke-width="4.768">
                    <path d="M71.396,71.377 C67.248,75.351 61.621,77.792 55.424,77.792 C42.671,77.792 32.332,67.454 32.332,54.701 C32.332,41.948 42.671,31.61 55.424,31.61 C61.798,31.61 67.569,34.193 71.748,38.37" id="Stroke-4"></path>
                    <path d="M7.995,54.701 C7.995,29.664 28.291,9.368 53.328,9.368 C65.843,9.368 77.174,14.439 85.377,22.639" id="Stroke-5"></path>
                    <path d="M84.685,87.441 C76.542,95.242 65.495,100.035 53.328,100.035" id="Stroke-6"></path>
                    <path d="M18.734,54.701 C18.734,74.533 34.869,90.667 54.7,90.667 C64.017,90.667 72.852,87.119 79.577,80.676 L92.537,94.206 C82.308,104.004 68.87,109.402 54.7,109.402 C24.538,109.402 0,84.863 0,54.701 C0,24.54 24.538,0 54.7,0 C69.308,0 83.04,5.688 93.371,16.014 L80.127,29.264 C73.334,22.474 64.305,18.735 54.7,18.735" id="Stroke-7"></path>
                </g>
            </g>
        </g>
    </g>
</svg>